<?xml version="1.0" encoding="utf-8"?>
<!-- Generator: Adobe Illustrator 25.2.0, SVG Export Plug-In . SVG Version: 6.00 Build 0)  -->
<svg version="1.1" id="Layer_1" xmlns="http://www.w3.org/2000/svg" xmlns:xlink="http://www.w3.org/1999/xlink" x="0px" y="0px"
	 viewBox="0 0 39.3 50" style="enable-background:new 0 0 39.3 50;" xml:space="preserve">
<style type="text/css">
	.st0{fill:#FAFAFA;}
</style>
<path class="st0" d="M34.8,45.1c0.4,0.8,0.9,1.5,1.6,2.1l2.9,2.7V50H24.8l-7.6-16.2C17,33.3,16.5,33,15.9,33c-0.3,0-0.5,0.1-0.8,0.3
	v11.8c-0.1,0.6,0.1,1.3,0.7,1.7l3.4,3.1V50H0v-0.1l3.4-3.2c0.5-0.4,0.7-1,0.6-1.7V6.8c0.1-0.6-0.1-1.3-0.6-1.7L0,1.9V1.8L15.2,0
	v32.5l9.7-7.2L34.8,45.1z"/>
<path class="st0" d="M22.6,16c-0.1-2.9,2.3-5.3,5.2-5.4c0.1,0,0.2,0,0.3,0c2.9-0.2,5.4,2,5.6,4.9c0,0.1,0,0.3,0,0.4
	c0,3.1-2.5,5.1-5.6,5.1S22.6,19.1,22.6,16z"/>
</svg>
