<svg xmlns="http://www.w3.org/2000/svg" viewBox="0 0 39.3 50"><defs><style>.cls-1{fill:#212121;}.cls-2{fill:#eb4f44;}</style></defs><path class="cls-1" d="M39.65,45.06a8.62,8.62,0,0,0,1.58,2.13l2.88,2.67V50H29.57L22,33.81A1.3,1.3,0,0,0,20.72,33a1.25,1.25,0,0,0-.75.28V45.06a1.64,1.64,0,0,0,.68,1.65L24,49.86V50H4.81v-.14l3.36-3.15a1.75,1.75,0,0,0,.62-1.65V6.79a1.85,1.85,0,0,0-.62-1.71L4.81,1.92V1.78L20,0V32.51l9.67-7.23Z" transform="translate(-4.81)"/><path class="cls-2" d="M27.46,16a5.26,5.26,0,0,1,5.48-5.35A5.24,5.24,0,0,1,38.5,16c0,3.09-2.47,5.08-5.56,5.08S27.46,19.11,27.46,16Z" transform="translate(-4.81)"/></svg>