<svg id="artwork" xmlns="http://www.w3.org/2000/svg" xmlns:xlink="http://www.w3.org/1999/xlink" viewBox="0 0 135 40"><defs><style>.cls-1{fill:#a6a6a6;}.cls-10,.cls-2,.cls-9{fill:#fff;}.cls-3{fill:url(#linear-gradient);}.cls-4{fill:url(#linear-gradient-2);}.cls-5{fill:url(#linear-gradient-3);}.cls-6{fill:url(#linear-gradient-4);}.cls-7{opacity:0.2;}.cls-7,.cls-8,.cls-9{isolation:isolate;}.cls-8{opacity:0.12;}.cls-9{opacity:0.25;}.cls-10{stroke:#fff;stroke-miterlimit:10;stroke-width:0.2px;}</style><linearGradient id="linear-gradient" x1="31.8" y1="183.29" x2="15.02" y2="166.5" gradientTransform="matrix(1, 0, 0, -1, 0, 202)" gradientUnits="userSpaceOnUse"><stop offset="0" stop-color="#00a0ff"/><stop offset="0.01" stop-color="#00a1ff"/><stop offset="0.26" stop-color="#00beff"/><stop offset="0.51" stop-color="#00d2ff"/><stop offset="0.76" stop-color="#00dfff"/><stop offset="1" stop-color="#00e3ff"/></linearGradient><linearGradient id="linear-gradient-2" x1="43.83" y1="172" x2="19.64" y2="172" gradientTransform="matrix(1, 0, 0, -1, 0, 202)" gradientUnits="userSpaceOnUse"><stop offset="0" stop-color="#ffe000"/><stop offset="0.41" stop-color="#ffbd00"/><stop offset="0.78" stop-color="orange"/><stop offset="1" stop-color="#ff9c00"/></linearGradient><linearGradient id="linear-gradient-3" x1="34.83" y1="169.7" x2="12.07" y2="146.94" gradientTransform="matrix(1, 0, 0, -1, 0, 202)" gradientUnits="userSpaceOnUse"><stop offset="0" stop-color="#ff3a44"/><stop offset="1" stop-color="#c31162"/></linearGradient><linearGradient id="linear-gradient-4" x1="17.3" y1="191.82" x2="27.46" y2="181.66" gradientTransform="matrix(1, 0, 0, -1, 0, 202)" gradientUnits="userSpaceOnUse"><stop offset="0" stop-color="#32a071"/><stop offset="0.07" stop-color="#2da771"/><stop offset="0.48" stop-color="#15cf74"/><stop offset="0.8" stop-color="#06e775"/><stop offset="1" stop-color="#00f076"/></linearGradient></defs><rect width="135" height="40" rx="5"/><path class="cls-1" d="M140,10.8a4.21,4.21,0,0,1,4.2,4.2V45a4.2,4.2,0,0,1-4.2,4.2H15A4.2,4.2,0,0,1,10.8,45V15A4.21,4.21,0,0,1,15,10.8H140m0-.8H15a5,5,0,0,0-5,5V45a5,5,0,0,0,5,5H140a5,5,0,0,0,5-5V15a5,5,0,0,0-5-5Z" transform="translate(-10 -10)"/><path class="cls-2" d="M78.14,31.75A4.26,4.26,0,1,0,82.41,36,4.19,4.19,0,0,0,78.14,31.75Zm0,6.84A2.59,2.59,0,1,1,80.54,36,2.46,2.46,0,0,1,78.14,38.59Zm-9.32-6.84A4.26,4.26,0,1,0,73.09,36,4.2,4.2,0,0,0,68.82,31.75Zm0,6.84A2.59,2.59,0,1,1,71.22,36,2.46,2.46,0,0,1,68.82,38.59ZM57.74,33.06v1.8h4.32a3.83,3.83,0,0,1-1,2.28,4.46,4.46,0,0,1-3.34,1.32,4.81,4.81,0,0,1,0-9.61A4.64,4.64,0,0,1,61,30.14l1.27-1.27a6.3,6.3,0,0,0-4.53-1.82,6.61,6.61,0,1,0,0,13.21,6,6,0,0,0,4.61-1.85,6,6,0,0,0,1.56-4.22,6.31,6.31,0,0,0-.09-1.13Zm45.31,1.4a4,4,0,0,0-3.64-2.71,4,4,0,0,0-4,4.26,4.16,4.16,0,0,0,4.22,4.25,4.21,4.21,0,0,0,3.54-1.88l-1.45-1a2.42,2.42,0,0,1-2.09,1.18,2.16,2.16,0,0,1-2.06-1.29l5.69-2.36Zm-5.8,1.42a2.33,2.33,0,0,1,2.23-2.48,1.64,1.64,0,0,1,1.57.9ZM92.63,40H94.5V27.5H92.63Zm-3.06-7.29H89.5a2.94,2.94,0,0,0-2.24-1,4.26,4.26,0,0,0,0,8.51,2.88,2.88,0,0,0,2.24-1h.07v.62A2.18,2.18,0,0,1,87.3,42.4a2.36,2.36,0,0,1-2.15-1.51l-1.62.68a4,4,0,0,0,3.77,2.51c2.19,0,4-1.29,4-4.43V32H89.57Zm-2.15,5.88a2.59,2.59,0,0,1,0-5.16A2.4,2.4,0,0,1,89.7,36,2.38,2.38,0,0,1,87.42,38.59ZM111.81,27.5h-4.48V40h1.87V35.27h2.61a3.89,3.89,0,1,0,0-7.77Zm0,6H109.2V29.24h2.65a2.15,2.15,0,1,1,0,4.29Zm11.54-1.8a3.5,3.5,0,0,0-3.33,1.92l1.65.69a2,2,0,0,1,3.67.69v.13a4,4,0,0,0-1.95-.49c-1.78,0-3.6,1-3.6,2.82a2.89,2.89,0,0,0,3.11,2.75A2.64,2.64,0,0,0,125.32,39h.06v1h1.8V35.19C127.18,33,125.52,31.73,123.39,31.73Zm-.23,6.85c-.61,0-1.46-.3-1.46-1.06,0-1,1.06-1.33,2-1.33a3.33,3.33,0,0,1,1.7.41A2.26,2.26,0,0,1,123.16,38.58ZM133.74,32l-2.14,5.42h-.06L129.32,32h-2l3.33,7.58-1.9,4.21h1.95L135.82,32Zm-16.8,8h1.86V27.5h-1.86Z" transform="translate(-10 -10)"/><path class="cls-3" d="M20.44,17.54A2,2,0,0,0,20,19V41.06a2,2,0,0,0,.47,1.41l.07.07L32.9,30.15v-.29L20.51,17.47Z" transform="translate(-10 -10)"/><path class="cls-4" d="M37,34.28,32.9,30.15v-.29L37,25.73l.09.05L42,28.56c1.4.79,1.4,2.09,0,2.89l-4.89,2.78Z" transform="translate(-10 -10)"/><path class="cls-5" d="M37.12,34.23,32.9,30,20.44,42.47a1.63,1.63,0,0,0,2.07.06l14.61-8.3" transform="translate(-10 -10)"/><path class="cls-6" d="M37.12,25.78l-14.61-8.3a1.61,1.61,0,0,0-2.07.06L32.9,30Z" transform="translate(-10 -10)"/><path class="cls-7" d="M37,34.13,22.51,42.38a1.66,1.66,0,0,1-2,0h0l-.07.08h0l.07.07h0a1.66,1.66,0,0,0,2,0l14.61-8.3Z" transform="translate(-10 -10)"/><path class="cls-8" d="M20.44,42.32a2,2,0,0,1-.47-1.4v.14a2,2,0,0,0,.47,1.41l.07-.08Z" transform="translate(-10 -10)"/><path class="cls-8" d="M42,31.3l-5,2.83.09.1L42,31.45A1.76,1.76,0,0,0,43.06,30h0A1.84,1.84,0,0,1,42,31.3Z" transform="translate(-10 -10)"/><path class="cls-9" d="M22.51,17.63,42,28.71A1.85,1.85,0,0,1,43.06,30h0A1.76,1.76,0,0,0,42,28.56L22.51,17.48C21.12,16.69,20,17.35,20,19v.14C20,17.49,21.12,16.83,22.51,17.63Z" transform="translate(-10 -10)"/><path class="cls-10" d="M51.27,23V17H53.1a3,3,0,0,1,2.21.83A2.92,2.92,0,0,1,56.14,20a2.92,2.92,0,0,1-.83,2.17A3,3,0,0,1,53.1,23Zm.77-.74H53.1a2.3,2.3,0,0,0,1.65-.59A2.27,2.27,0,0,0,55.36,20a2.09,2.09,0,0,0-2.26-2.26H52Z" transform="translate(-10 -10)"/><path class="cls-10" d="M57.23,23V17H58v6Z" transform="translate(-10 -10)"/><path class="cls-10" d="M61.06,23.13a2.24,2.24,0,0,1-1.27-.42,2,2,0,0,1-.82-1.2l.7-.29a1.69,1.69,0,0,0,.52.84,1.32,1.32,0,0,0,.87.34,1.38,1.38,0,0,0,.86-.27.83.83,0,0,0,.36-.71.92.92,0,0,0-.36-.78,3.78,3.78,0,0,0-1.13-.51,2.83,2.83,0,0,1-1.2-.65,1.31,1.31,0,0,1-.41-1,1.51,1.51,0,0,1,.51-1.13,2.16,2.16,0,0,1,2.57-.09,1.7,1.7,0,0,1,.62.83l-.7.29a1,1,0,0,0-.38-.52A1.11,1.11,0,0,0,61,17.6a1.22,1.22,0,0,0-.76.25.77.77,0,0,0-.32.62.7.7,0,0,0,.29.56,2.92,2.92,0,0,0,.85.42,6.21,6.21,0,0,1,.75.27,3.53,3.53,0,0,1,.6.36,1.43,1.43,0,0,1,.46.55,1.86,1.86,0,0,1,.16.77,1.66,1.66,0,0,1-.18.78,1.4,1.4,0,0,1-.48.54,2.23,2.23,0,0,1-.64.31A2.44,2.44,0,0,1,61.06,23.13Z" transform="translate(-10 -10)"/><path class="cls-10" d="M64.94,23h-.77V17h2a1.92,1.92,0,0,1,1.32.51,1.75,1.75,0,0,1,0,2.55,1.92,1.92,0,0,1-1.32.51H64.94Zm0-3.17h1.29a1,1,0,0,0,.78-.32,1,1,0,0,0,0-1.45,1,1,0,0,0-.78-.32H64.94Z" transform="translate(-10 -10)"/><path class="cls-10" d="M74,22.22a3.11,3.11,0,0,1-4.4,0,3.24,3.24,0,0,1,0-4.44,3.11,3.11,0,0,1,4.4,0A3.08,3.08,0,0,1,74.86,20,3,3,0,0,1,74,22.22Zm-3.83-.5a2.29,2.29,0,0,0,3.26,0,2.54,2.54,0,0,0,0-3.44,2.29,2.29,0,0,0-3.26,0,2.57,2.57,0,0,0,0,3.44Z" transform="translate(-10 -10)"/><path class="cls-10" d="M75.94,23V17h.94l2.91,4.67h0l0-1.16V17h.77v6h-.8l-3.05-4.89h0l0,1.15V23Z" transform="translate(-10 -10)"/><path class="cls-10" d="M81.94,23V17h.77v6Z" transform="translate(-10 -10)"/><path class="cls-10" d="M84.08,23V17h2.17a1.8,1.8,0,0,1,1.22.46A1.51,1.51,0,0,1,88,18.63a1.31,1.31,0,0,1-.23.76,1.29,1.29,0,0,1-.59.49v0a1.47,1.47,0,0,1,.73.52,1.35,1.35,0,0,1,.29.85,1.57,1.57,0,0,1-.54,1.22,1.83,1.83,0,0,1-1.28.49Zm.77-3.43h1.4a.87.87,0,0,0,.7-.29.9.9,0,0,0,.27-.63A.93.93,0,0,0,87,18a.85.85,0,0,0-.67-.28H84.85Zm0,2.69H86.4a.9.9,0,0,0,.72-.31,1,1,0,0,0,0-1.35,1,1,0,0,0-.75-.31H84.85Z" transform="translate(-10 -10)"/><path class="cls-10" d="M89.23,23V17H90v6Z" transform="translate(-10 -10)"/><path class="cls-10" d="M91.37,23V17h.77v5.26h2.6V23Z" transform="translate(-10 -10)"/><path class="cls-10" d="M99.22,17.74H96.48v1.9H99v.72H96.48v1.9h2.74V23H95.71V17h3.51Z" transform="translate(-10 -10)"/><path class="cls-10" d="M103.88,23.13a2.25,2.25,0,0,1-1.28-.42,2,2,0,0,1-.82-1.2l.7-.29a1.69,1.69,0,0,0,.52.84,1.33,1.33,0,0,0,.88.34,1.35,1.35,0,0,0,.85-.27.83.83,0,0,0,.36-.71.92.92,0,0,0-.36-.78,3.7,3.7,0,0,0-1.12-.51,2.87,2.87,0,0,1-1.21-.65,1.35,1.35,0,0,1-.41-1,1.51,1.51,0,0,1,.51-1.13,2.16,2.16,0,0,1,2.57-.09,1.7,1.7,0,0,1,.62.83l-.7.29a1,1,0,0,0-.37-.52,1.15,1.15,0,0,0-.77-.25,1.22,1.22,0,0,0-.76.25.76.76,0,0,0-.31.62.67.67,0,0,0,.29.56,2.68,2.68,0,0,0,.85.42,6.67,6.67,0,0,1,.74.27,3.18,3.18,0,0,1,.6.36,1.35,1.35,0,0,1,.46.55,1.71,1.71,0,0,1,.16.77,1.66,1.66,0,0,1-.18.78,1.4,1.4,0,0,1-.48.54,2.23,2.23,0,0,1-.64.31A2.37,2.37,0,0,1,103.88,23.13Z" transform="translate(-10 -10)"/><path class="cls-10" d="M109.07,23.13a2.07,2.07,0,0,1-1.6-.65,2.41,2.41,0,0,1-.62-1.71V17h.77v3.8A1.79,1.79,0,0,0,108,22a1.55,1.55,0,0,0,2.16,0,1.74,1.74,0,0,0,.37-1.16V17h.77v3.77a2.41,2.41,0,0,1-.6,1.71A2.07,2.07,0,0,1,109.07,23.13Z" transform="translate(-10 -10)"/></svg>