
<svg xmlns="http://www.w3.org/2000/svg"
	 viewBox="0 0 500 181">
<style>
	.st0{fill:#FAFAFA;}
</style>
<path class="st0" d="M81.1,57.4c0-11.8,9.1-19.2,19.6-19.2c11,0,19.9,7.4,19.9,19.2c0,11-8.8,18.2-19.9,18.2
	C90.1,75.6,81.1,68.4,81.1,57.4z"/>
<path class="st0" d="M124.7,161.4c1.5,2.8,3.4,5.4,5.6,7.6l10.3,9.6v0.4h-52l-27.2-58c-0.9-2.4-3.5-3.6-5.9-2.7
	c-0.5,0.2-0.9,0.4-1.2,0.7v42.2c0,3.2,0.2,3.9,2.5,5.9l12,11.3v0.6H0v-0.5l12-11.3c2-2,2.2-2.7,2.2-5.9v-137c0-3.2-0.2-4.2-2.2-6.1
	L0,6.9V6.4L54.2,0v116.4l34.6-25.9L124.7,161.4z"/>
<path class="st0" d="M197.4,57.5v103.9c0,3.2,0,3.9,2.2,5.9l12,11.3v0.4h-68.7v-0.5l12-11.3c2.2-2,2.2-2.7,2.2-5.9v-85
	c0-3.2-0.2-3.9-2.2-6.1l-12-12.2v-0.5L197.4,57.5z M156.9,25.8c0-11.8,9.1-19.2,19.6-19.2c11.1,0,19.9,7.4,19.9,19.2
	c0,11-8.8,18.2-19.9,18.2C166,44,156.9,36.8,156.9,25.8z"/>
<path class="st0" d="M350.2,161.4c0,3.2,0.2,3.9,2.2,5.9l12.3,11.3v0.4h-69v-0.5l11.8-11.3c2-2,2.2-2.9,2.2-5.6
	c0-3.7,0.7-36.8,0.7-48.6c0-22.3-3.4-37.1-18.6-37.1c-7.9,0-13.8,4.4-18.2,10.8v74.7c0,3.2,0,3.9,2.2,5.9l12,11.3v0.5h-68.7v-0.5
	l12-11.3c2.2-2,2.2-2.7,2.2-5.9v-85c0-3.2-0.2-3.9-2.2-6.1l-12-12.2v-0.5h54.5v26c6.1-17.2,19.1-28,39-28
	c24.5,0,38.3,17.9,38.3,51.8C350.9,122.6,350.4,142,350.2,161.4z"/>
<path class="st0" d="M370.6,118.1c0-41.3,25.8-62.6,64.6-62.6S500,76.6,500,118.4c0,41.3-26,62.6-64.8,62.6S370.6,159.9,370.6,118.1
	z M415.3,118.1c0,47.4,7.6,58.5,19.9,58.5s19.9-10.6,19.9-58.2c0-47.4-7.6-58.2-19.9-58.2S415.3,70.5,415.3,118.1z"/>
</svg>
