<svg xmlns="http://www.w3.org/2000/svg" viewBox="0 0 500 181"><defs><style>.cls-1{fill:#eb4f44;}.cls-2{fill:#212121;}</style></defs><path class="cls-1" d="M81.06,57.38c0-11.79,9.08-19.16,19.64-19.16,11,0,19.89,7.37,19.89,19.16,0,11.05-8.84,18.18-19.89,18.18C90.14,75.56,81.06,68.43,81.06,57.38Z"/><path class="cls-2" d="M124.71,161.36a30.5,30.5,0,0,0,5.64,7.61l10.31,9.58V179h-52l-27.25-58a4.57,4.57,0,0,0-7.12-2v42.24c0,3.19.25,3.92,2.46,5.89l12,11.3V179H0v-.49l12-11.3c2-2,2.21-2.7,2.21-5.89v-137c0-3.2-.25-4.18-2.21-6.14L0,6.88V6.39L54.25,0V116.42L88.88,90.53Z"/><path class="cls-2" d="M197.44,57.47V161.36c0,3.19,0,3.92,2.21,5.89l12,11.3V179H142.94v-.49l12-11.3c2.21-2,2.21-2.7,2.21-5.89v-85c0-3.19-.25-3.93-2.21-6.14L142.94,58v-.49Zm-40.5-31.68C156.94,14,166,6.63,176.57,6.63c11.06,0,19.89,7.37,19.89,19.16,0,11.05-8.83,18.18-19.89,18.18C166,44,156.94,36.84,156.94,25.79Z"/><path class="cls-2" d="M350.18,161.36c0,3.19.24,3.92,2.21,5.89l12.27,11.3V179h-69v-.49l11.79-11.3c1.95-2,2.2-2.95,2.2-5.65,0-3.68.73-36.83.73-48.62,0-22.35-3.42-37.09-18.65-37.09-7.85,0-13.75,4.42-18.16,10.8v74.67c0,3.19,0,3.92,2.2,5.89l12,11.3V179H219.09v-.49l12-11.3c2.21-2,2.21-2.7,2.21-5.89v-85c0-3.19-.25-3.93-2.21-6.14L219.09,58v-.49h54.5v26c6.13-17.19,19.14-28,39-28,24.55,0,38.29,17.93,38.29,51.83C350.91,122.56,350.42,142,350.18,161.36Z"/><path class="cls-2" d="M370.63,118.13c0-41.26,25.77-62.63,64.56-62.63S500,76.62,500,118.38c0,41.26-26,62.62-64.81,62.62S370.63,159.88,370.63,118.13Zm44.68,0c0,47.4,7.61,58.45,19.88,58.45s19.89-10.56,19.89-58.2c0-47.41-7.62-58.21-19.89-58.21S415.31,70.48,415.31,118.13Z"/></svg>