<svg id="twitter" xmlns="http://www.w3.org/2000/svg" viewBox="0 0 32 32"><defs><style>.cls-1{fill:#fafafa;}</style></defs><path class="cls-1" d="M16,0A16,16,0,1,0,32,16,16,16,0,0,0,16,0Zm7.3,12.48c0,.15,0,.31,0,.47A10.38,10.38,0,0,1,12.85,23.4h0a10.44,10.44,0,0,1-5.63-1.65,8.49,8.49,0,0,0,.88.05,7.4,7.4,0,0,0,4.56-1.57,3.67,3.67,0,0,1-3.43-2.55,3.85,3.85,0,0,0,.69.06,3.44,3.44,0,0,0,1-.13A3.67,3.67,0,0,1,7.94,14v0a3.75,3.75,0,0,0,1.67.46A3.67,3.67,0,0,1,8.47,9.52,10.39,10.39,0,0,0,16,13.36a3.86,3.86,0,0,1-.1-.84A3.68,3.68,0,0,1,22.3,10a7.31,7.31,0,0,0,2.33-.89,3.68,3.68,0,0,1-1.62,2,7,7,0,0,0,2.11-.58A7.39,7.39,0,0,1,23.29,12.48Z" transform="translate(0.01)"/></svg>