<?xml version="1.0" encoding="utf-8"?>
<!-- Generator: Adobe Illustrator 25.2.0, SVG Export Plug-In . SVG Version: 6.00 Build 0)  -->
<svg version="1.1" id="vimeo" xmlns="http://www.w3.org/2000/svg" xmlns:xlink="http://www.w3.org/1999/xlink" x="0px" y="0px"
	 viewBox="0 0 32 32" style="enable-background:new 0 0 32 32;" xml:space="preserve">
<style type="text/css">
	.st0{fill:#FAFAFA;}
</style>
<g>
	<path class="st0" d="M16,0C7.2,0,0,7.2,0,16s7.2,16,16,16s16-7.2,16-16S24.8,0,16,0z M27.3,10.7c-0.1,2.2-1.6,5.2-4.6,9.1
		c-3.1,4-5.7,6-7.8,6c-1.3,0-2.4-1.2-3.3-3.7c-0.6-2.2-1.2-4.5-1.8-6.7C9,13,8.3,11.8,7.5,11.8c-0.2,0-0.8,0.4-1.8,1.1l-1.1-1.4
		c1.1-1,2.2-2,3.3-2.9c1.5-1.3,2.6-2,3.4-2c1.8-0.2,2.8,1,3.3,3.6c0.4,2.8,0.7,4.5,0.9,5.2c0.5,2.3,1.1,3.5,1.7,3.5
		c0.5,0,1.2-0.7,2.1-2.2c0.9-1.5,1.5-2.6,1.5-3.4c0.1-1.3-0.4-1.9-1.5-1.9c-0.5,0-1.1,0.1-1.7,0.4c1.1-3.6,3.2-5.4,6.4-5.3
		C26.3,6.3,27.4,7.8,27.3,10.7z"/>
</g>
</svg>
